#!OML:ASF G:\JayActor3\Patient Classification 1\Patient 1\Session 5\male.ASF
:FULLY-SPECIFIED
:DEGREES
1128
root 16.0983 16.7906 -0.681306 -166.49 22.3528 -175.184
lowerback 6.54568 -1.01052 5.98224
upperback -0.250046 -0.814041 0.703966
thorax -4.01366 -0.502927 -2.54827
lowerneck 0.489505 0.522082 2.68761
upperneck -0.526323 0.74243 0.84455
head -0.231407 0.372408 -0.183175
rclavicle -3.97569e-015 -1.94809e-014
rhumerus -33.6862 -11.0731 -84.911
rradius 18.1659
rwrist 16.1506
rhand -21.8948 -5.93347
rfingers 7.12502
rthumb 4.51039 -35.8654
lclavicle -3.97569e-015 -1.94809e-014
lhumerus -35.6749 -34.1029 110.894
lradius 4.30299
lwrist 60.1887
lhand -29.8192 13.5855
lfingers 7.12502
lthumb -3.14281 43.5421
rfemur 2.28733 4.43521 32.245
rtibia 15.0402
rfoot -18.9377 -6.20065
rtoes 2.38753
lfemur -24.5827 4.5893 -15.8281
ltibia 47.2932
lfoot -20.8646 2.38793
ltoes -19.2212
1129
root 16.1693 16.8025 -0.788695 -166.467 22.2947 -175.208
lowerback 6.69275 -0.993648 5.95924
upperback -0.24969 -0.782408 0.698737
thorax -4.09308 -0.488747 -2.54244
lowerneck 0.486711 0.445698 2.62504
upperneck -0.553674 0.64181 0.938514
head -0.240456 0.321898 -0.144293
rclavicle 4.3186e-014 3.20043e-014
rhumerus -33.5706 -10.9815 -84.9864
rradius 18.1859
rwrist 16.1021
rhand -21.942 -5.93038
rfingers 7.12502
rthumb 4.46482 -35.8633
lclavicle 4.3186e-014 3.20043e-014
lhumerus -35.8569 -34.2175 111.068
lradius 4.27658
lwrist 60.4219
lhand -29.8006 13.5724
lfingers 7.12502
lthumb -3.12491 43.5293
rfemur 2.31969 3.87826 32.2381
rtibia 15.4603
rfoot -18.33 -5.88591
rtoes 2.40434
lfemur -25.0649 4.41622 -15.8985
ltibia 47.1708
lfoot -20.845 2.05763
ltoes -19.0841
1130
root 16.2418 16.8172 -0.898944 -166.458 22.2704 -175.252
lowerback 6.84197 -0.975527 5.90091
upperback -0.247505 -0.752778 0.684795
thorax -4.17153 -0.475016 -2.52578
lowerneck 0.484857 0.374757 2.5668
upperneck -0.578964 0.548533 1.03097
head -0.248817 0.275089 -0.106634
rclavicle 3.2054e-014 1.59028e-014
rhumerus -33.4583 -10.8834 -85.0657
rradius 18.2109
rwrist 16.0412
rhand -21.9887 -5.92751
rfingers 7.12502
rthumb 4.41964 -35.8614
lclavicle 3.2054e-014 1.59028e-014
lhumerus -36.0267 -34.3104 111.218
lradius 4.24691
lwrist 60.6284
lhand -29.7688 13.5569
lfingers 7.12502
lthumb -3.09416 43.5142
rfemur 2.16724 3.35612 32.1962
rtibia 16.2209
rfoot -17.772 -5.61744
rtoes 2.3769
lfemur -25.4081 4.26543 -15.991
ltibia 46.8404
lfoot -20.8192 1.70705
ltoes -18.9067
1131
root 16.3158 16.8342 -1.01202 -166.463 22.2812 -175.318
lowerback 6.99302 -0.956942 5.80755
upperback -0.244327 -0.726369 0.662179
thorax -4.24985 -0.462344 -2.49827
lowerneck 0.483996 0.310337 2.51394
upperneck -0.60043 0.463979 1.12005
head -0.255981 0.232689 -0.070928
rclavicle 1.09829e-014 -5.96354e-015
rhumerus -33.351 -10.7963 -85.141
rradius 18.2356
rwrist 15.9907
rhand -22.0358 -5.92393
rfingers 7.12502
rthumb 4.37416 -35.8588
lclavicle 1.09829e-014 -5.96354e-015
lhumerus -36.1806 -34.3787 111.342
lradius 4.21202
lwrist 60.8069
lhand -29.7278 13.5478
lfingers 7.12502
lthumb -3.05463 43.5056
rfemur 1.84575 2.87679 32.1218
rtibia 17.2796
rfoot -17.2416 -5.39008
rtoes 2.31754
lfemur -25.6092 4.14276 -16.1048
ltibia 46.3072
lfoot -20.7859 1.33535
ltoes -18.6793
1132
root 16.391 16.8531 -1.12795 -166.482 22.3295 -175.402
lowerback 7.14513 -0.93764 5.68023
upperback -0.239658 -0.702877 0.632445
thorax -4.32708 -0.450481 -2.45892
lowerneck 0.484051 0.253043 2.46268
upperneck -0.617821 0.388914 1.20764
head -0.261895 0.195081 -0.0359883
rclavicle 2.92213e-014 -1.86858e-014
rhumerus -33.2495 -10.7113 -85.214
rradius 18.2615
rwrist 15.9417
rhand -22.0806 -5.91957
rfingers 7.12502
rthumb 4.33091 -35.8553
lclavicle 2.92213e-014 -1.86858e-014
lhumerus -36.3161 -34.4199 111.439
lradius 4.17234
lwrist 60.9553
lhand -29.6828 13.5386
lfingers 7.12502
lthumb -3.01109 43.4971
rfemur 1.37727 2.4441 32.0178
rtibia 18.5859
rfoot -16.7207 -5.25801
rtoes 2.15849
lfemur -25.6643 4.04662 -16.2374
ltibia 45.5785
lfoot -20.7442 0.957576
ltoes -18.4237
1133
root 16.4676 16.8737 -1.2468 -166.511 22.4158 -175.501
lowerback 7.2942 -0.917304 5.52362
upperback -0.233141 -0.681874 0.596054
thorax -4.4006 -0.439181 -2.40991
lowerneck 0.482795 0.202894 2.41505
upperneck -0.629422 0.323266 1.29281
head -0.265701 0.162266 -0.00240906
rclavicle 1.75924e-014 -1.39149e-014
rhumerus -33.1539 -10.6336 -85.2824
rradius 18.2868
rwrist 15.8979
rhand -22.1225 -5.91476
rfingers 7.12502
rthumb 4.2905 -35.8513
lclavicle 1.75924e-014 -1.39149e-014
lhumerus -36.4318 -34.4341 111.507
lradius 4.13005
lwrist 61.0711
lhand -29.6339 13.5302
lfingers 7.12502
lthumb -2.96392 43.4894
rfemur 0.78277 2.06282 31.8876
rtibia 20.0905
rfoot -16.2047 -5.2097
rtoes 1.95235
lfemur -25.5743 3.97963 -16.3855
ltibia 44.6638
lfoot -20.6956 0.573659
ltoes -18.1134
1134
root 16.5452 16.8952 -1.3685 -166.548 22.5393 -175.609
lowerback 7.43843 -0.896395 5.34281
upperback -0.225693 -0.66359 0.554619
thorax -4.47043 -0.428619 -2.3524
lowerneck 0.480606 0.160164 2.37169
upperneck -0.634885 0.26737 1.37403
head -0.267379 0.13441 0.0292366
rclavicle -5.04416e-014 1.47101e-014
rhumerus -33.0654 -10.5676 -85.3438
rradius 18.3102
rwrist 15.8625
rhand -22.1593 -5.90911
rfingers 7.12502
rthumb 4.25491 -35.8464
lclavicle -5.04416e-014 1.47101e-014
lhumerus -36.5279 -34.4196 111.547
lradius 4.08744
lwrist 61.1515
lhand -29.5828 13.5224
lfingers 7.12502
lthumb -2.91454 43.4822
rfemur 0.0786712 1.73471 31.7362
rtibia 21.7511
rfoot -15.6889 -5.24069
rtoes 1.71643
lfemur -25.3422 3.94265 -16.5436
ltibia 43.5744
lfoot -20.6368 0.186901
ltoes -17.7476
1135
root 16.6238 16.9173 -1.49309 -166.592 22.6997 -175.725
lowerback 7.57562 -0.875769 5.14144
upperback -0.216964 -0.649011 0.508437
thorax -4.5351 -0.419285 -2.28797
lowerneck 0.477237 0.125734 2.3315
upperneck -0.634145 0.222382 1.45206
head -0.26689 0.112098 0.0593635
rclavicle -3.96078e-014 -1.2921e-014
rhumerus -32.9844 -10.5066 -85.4001
rradius 18.3322
rwrist 15.8276
rhand -22.1888 -5.90233
rfingers 7.12502
rthumb 4.22646 -35.8401
lclavicle -3.96078e-014 -1.2921e-014
lhumerus -36.6028 -34.3744 111.557
lradius 4.04603
lwrist 61.1934
lhand -29.5329 13.5196
lfingers 7.12502
lthumb -2.86637 43.4801
rfemur -0.719944 1.46561 31.5659
rtibia 23.5331
rfoot -15.1787 -5.34593
rtoes 1.49032
lfemur -24.9695 3.93366 -16.7097
ltibia 42.3222
lfoot -20.5679 -0.192148
ltoes -17.3362
1136
root 16.7031 16.9391 -1.62046 -166.642 22.8948 -175.846
lowerback 7.70542 -0.855422 4.92408
upperback -0.206954 -0.637679 0.458032
thorax -4.59443 -0.411016 -2.21868
lowerneck 0.473096 0.0987829 2.29708
upperneck -0.628411 0.187252 1.52549
head -0.264692 0.094791 0.0871297
rclavicle -1.55549e-014 -3.33958e-014
rhumerus -32.9117 -10.4586 -85.4482
rradius 18.3516
rwrist 15.7973
rhand -22.2109 -5.89341
rfingers 7.12502
rthumb 4.20512 -35.8316
lclavicle -1.55549e-014 -3.33958e-014
lhumerus -36.6544 -34.3014 111.537
lradius 4.00239
lwrist 61.1985
lhand -29.482 13.513
lfingers 7.12502
lthumb -2.8172 43.4742
rfemur -1.60121 1.25636 31.3807
rtibia 25.4074
rfoot -14.6858 -5.52005
rtoes 1.30085
lfemur -24.459 3.94633 -16.8803
ltibia 40.9207
lfoot -20.4898 -0.549487
ltoes -16.9016
1137
root 16.7832 16.9601 -1.75055 -166.698 23.1242 -175.97
lowerback 7.82592 -0.83626 4.6924
upperback -0.195892 -0.630615 0.405117
thorax -4.64765 -0.404302 -2.14356
lowerneck 0.468991 0.0803399 2.26611
upperneck -0.617988 0.163332 1.5943
head -0.261023 0.0831528 0.112898
rclavicle 1.43622e-014 -1.09332e-014
rhumerus -32.8484 -10.4193 -85.4876
rradius 18.368
rwrist 15.7742
rhand -22.2283 -5.88306
rfingers 7.12502
rthumb 4.18829 -35.8216
lclavicle 1.43622e-014 -1.09332e-014
lhumerus -36.6835 -34.1967 111.487
lradius 3.96113
lwrist 61.1618
lhand -29.4294 13.5072
lfingers 7.12502
lthumb -2.7664 43.469
rfemur -2.55718 1.10704 31.1828
rtibia 27.3492
rfoot -14.2008 -5.75988
rtoes 1.03085
lfemur -23.8144 3.97554 -17.0529
ltibia 39.3829
lfoot -20.4026 -0.883772
ltoes -16.4251
1138
root 16.8638 16.9797 -1.88325 -166.758 23.3848 -176.094
lowerback 7.93756 -0.818717 4.45026
upperback -0.184286 -0.627909 0.350094
thorax -4.69556 -0.39929 -2.0643
lowerneck 0.465034 0.0698865 2.23899
upperneck -0.603292 0.149951 1.65876
head -0.256047 0.076846 0.136693
rclavicle 1.33186e-014 -1.61016e-014
rhumerus -32.7953 -10.3948 -85.5163
rradius 18.3802
rwrist 15.7615
rhand -22.2414 -5.87087
rfingers 7.12502
rthumb 4.17568 -35.8097
lclavicle 1.33186e-014 -1.61016e-014
lhumerus -36.6893 -34.0624 111.408
lradius 3.92047
lwrist 61.083
lhand -29.3749 13.502
lfingers 7.12502
lthumb -2.71382 43.4645
rfemur -3.58299 1.01483 30.9749
rtibia 29.3376
rfoot -13.7494 -6.04962
rtoes 0.775121
lfemur -23.0398 4.01731 -17.2252
ltibia 37.7211
lfoot -20.3054 -1.18365
ltoes -15.9225
1139
root 16.945 16.9974 -2.01839 -166.822 23.6749 -176.22
lowerback 8.04081 -0.803442 4.19728
upperback -0.172734 -0.630342 0.29337
thorax -4.73906 -0.396385 -1.98013
lowerneck 0.461647 0.0678707 2.21549
upperneck -0.584509 0.147725 1.71921
head -0.249903 0.0761764 0.158658
rclavicle -2.70347e-014 2.98177e-014
rhumerus -32.7538 -10.3777 -85.5369
rradius 18.3902
rwrist 15.7516
rhand -22.2498 -5.85826
rfingers 7.12502
rthumb 4.16756 -35.7972
lclavicle -2.70347e-014 2.98177e-014
lhumerus -36.671 -33.8985 111.3
lradius 3.87962
lwrist 60.9623
lhand -29.3187 13.4979
lfingers 7.12502
lthumb -2.65951 43.461
rfemur -4.67544 0.977502 30.7576
rtibia 31.3543
rfoot -13.3257 -6.3864
rtoes 0.45312
lfemur -22.1405 4.07111 -17.399
ltibia 35.9469
lfoot -20.1943 -1.44006
ltoes -15.4031
1140
root 17.0266 17.0131 -2.15589 -166.892 23.9918 -176.347
lowerback 8.13677 -0.790457 3.93509
upperback -0.161416 -0.637658 0.235011
thorax -4.77893 -0.39551 -1.8919
lowerneck 0.45914 0.0734927 2.19651
upperneck -0.562865 0.155625 1.77513
head -0.243023 0.0806118 0.178497
rclavicle 3.68249e-014 -1.25234e-014
rhumerus -32.7245 -10.3743 -85.5463
rradius 18.3966
rwrist 15.7503
rhand -22.254 -5.84237
rfingers 7.12502
rthumb 4.16349 -35.7814
lclavicle 3.68249e-014 -1.25234e-014
lhumerus -36.6326 -33.707 111.166
lradius 3.8427
lwrist 60.8024
lhand -29.2608 13.4956
lfingers 7.12502
lthumb -2.6036 43.4595
rfemur -5.8313 0.993147 30.5317
rtibia 33.384
rfoot -12.9491 -6.75501
rtoes 0.128454
lfemur -21.1203 4.13509 -17.5745
ltibia 34.0703
lfoot -20.0641 -1.64766
ltoes -14.8834
1141
root 17.1089 17.0265 -2.29562 -166.967 24.3329 -176.475
lowerback 8.2254 -0.780044 3.66618
upperback -0.150884 -0.650003 0.173812
thorax -4.81572 -0.396837 -1.80224
lowerneck 0.457677 0.0863299 2.18287
upperneck -0.538743 0.173156 1.82814
head -0.235561 0.0899098 0.196566
rclavicle -9.44227e-015 1.76918e-014
rhumerus -32.7083 -10.3891 -85.5457
rradius 18.3989
rwrist 15.7623
rhand -22.2587 -5.82579
rfingers 7.12502
rthumb 4.15898 -35.7649
lclavicle -9.44227e-015 1.76918e-014
lhumerus -36.573 -33.4916 111.005
lradius 3.80694
lwrist 60.6067
lhand -29.1996 13.4911
lfingers 7.12502
lthumb -2.54452 43.4556
rfemur -7.04818 1.05674 30.2981
rtibia 35.4123
rfoot -12.6268 -7.14915
rtoes -0.187778
lfemur -19.9852 4.20993 -17.7524
ltibia 32.101
lfoot -19.9059 -1.79746
ltoes -14.3981
1142
root 17.1917 17.0377 -2.43745 -167.047 24.6943 -176.605
lowerback 8.30696 -0.772667 3.39034
upperback -0.140597 -0.667792 0.112053
thorax -4.84895 -0.400504 -1.70859
lowerneck 0.456754 0.106001 2.17149
upperneck -0.513601 0.199759 1.87791
head -0.227884 0.103763 0.213274
rclavicle -6.75868e-015 9.93923e-016
rhumerus -32.7045 -10.4076 -85.5386
rradius 18.4002
rwrist 15.7753
rhand -22.2617 -5.81042
rfingers 7.12502
rthumb 4.15602 -35.7496
lclavicle -6.75868e-015 9.93923e-016
lhumerus -36.4915 -33.253 110.82
lradius 3.77411
lwrist 60.3798
lhand -29.1408 13.4872
lfingers 7.12502
lthumb -2.48765 43.4524
rfemur -8.32261 1.16621 30.0583
rtibia 37.4254
rfoot -12.3669 -7.56006
rtoes -0.464123
lfemur -18.7409 4.29578 -17.9319
ltibia 30.048
lfoot -19.705 -1.88801
ltoes -13.9471
